<svg xmlns="http://www.w3.org/2000/svg" viewBox="0 0 376.9 436.9"><g id="Layer_2" data-name="Layer 2"><g id="Layer_1-2" data-name="Layer 1"><g id="Camada_2" data-name="Camada 2"><g id="Camada_1-2" data-name="Camada 1-2"><polygon points="0 251.8 136 389.8 145 379.8 22 251.8 0 251.8"/><polygon points="231.6 379.9 240.6 389.9 376.6 251.9 354.6 251.9 231.6 379.9"/><polygon points="77 153.1 0 76.1 0 222.8 157 377.8 157 409.9 184 436.8 184 329.8 77 222.8 77 153.1"/><polygon points="299.6 153.3 299.6 222.9 299.6 222.9 192.6 329.9 192.6 436.9 219.6 410.1 219.6 377.9 376.6 223 376.6 223 376.6 76.3 299.6 153.3"/><polygon points="199.6 246.8 193.2 253.1 193.2 314 220.2 287.1 220.2 226.5 199.6 246.8"/><polygon points="193.2 0.1 193.2 53.4 195.6 55.9 220.2 81.9 220.2 53.8 323.1 53.8 376.9 0.1 193.2 0.1"/><polygon points="157 81.6 181.3 55.9 184 53 184 0.4 0 0 54 54.1 157 54.1 157 81.6"/><polygon points="176.7 247.1 157 227.7 157 287.4 184 314.3 184 254.3 176.7 247.1"/><polygon points="188.7 67.2 115.7 144.6 261.8 144.6 188.7 67.2"/><polygon points="155.5 153.1 111.1 153.1 111.1 173.1 183.9 244.7 183.7 180.8 155.5 153.1"/><polygon points="221.3 152.8 193.2 180.5 193 244.4 265.7 172.8 265.7 152.8 221.3 152.8"/><polygon points="77 120.2 2.3 46.6 2.3 68.6 77 140.4 77 120.2"/><polygon points="261.8 107.6 261.8 126 232.8 95.3 232.8 76.9 261.8 107.6"/></g></g></g></g></svg>