<svg xmlns="http://www.w3.org/2000/svg" viewBox="0 0 376.86 436.91"><g id="Camada_2" data-name="Camada 2"><g id="Camada_1-2" data-name="Camada 1"><polygon points="0 251.76 136 389.76 145 379.76 22 251.76 0 251.76"/><polygon points="231.63 379.91 240.63 389.91 376.63 251.91 354.63 251.91 231.63 379.91"/><polygon points="77 153.12 0 76.12 0 222.76 157 377.76 157 409.93 184 436.76 184 329.76 77 222.76 77 153.12"/><polygon points="299.63 153.32 299.63 222.91 299.63 222.91 192.63 329.91 192.63 436.91 219.63 410.07 219.63 377.91 376.57 222.97 376.63 222.97 376.63 76.32 299.63 153.32"/><polygon points="199.58 246.77 193.17 253.09 193.17 314.03 220.17 287.07 220.17 226.5 199.58 246.77"/><polygon points="193.17 0.1 193.17 53.36 195.55 55.89 220.17 81.95 220.17 53.84 323.12 53.84 376.86 0.1 193.17 0.1"/><polygon points="157 81.62 181.3 55.89 184 53.03 184 0.37 0 0 54.04 54.11 157 54.11 157 81.62"/><polygon points="176.66 247.05 157 227.69 157 287.35 184 314.31 184 254.27 176.66 247.05"/><polygon points="188.74 67.21 115.69 144.56 261.79 144.56 188.74 67.21"/><polygon points="155.53 153.12 111.13 153.12 111.13 173.08 183.85 244.66 183.66 180.76 155.53 153.12"/><polygon points="221.33 152.84 193.21 180.49 193.02 244.38 265.74 172.81 265.74 152.84 221.33 152.84"/><polygon points="77 120.22 2.26 46.56 2.26 68.56 77 140.38 77 120.22"/><polygon points="261.79 107.61 261.79 126.03 232.81 95.33 232.81 76.93 261.79 107.61"/></g></g></svg>