<?xml version="1.0" standalone="no"?>
<!DOCTYPE svg PUBLIC "-//W3C//DTD SVG 20010904//EN"
 "http://www.w3.org/TR/2001/REC-SVG-20010904/DTD/svg10.dtd">
<svg version="1.0" xmlns="http://www.w3.org/2000/svg"
 width="874.000000pt" height="874.000000pt" viewBox="0 0 874.000000 874.000000"
 preserveAspectRatio="xMidYMid meet">
<metadata>
Created by potrace 1.14, written by Peter Selinger 2001-2017
</metadata>
<g transform="translate(0.000000,874.000000) scale(0.100000,-0.100000)"
fill="#000000" stroke="none">
<path d="M610 8735 c0 -3 241 -246 536 -541 l535 -537 1027 -2 c565 -1 1029
-2 1032 -3 3 -1 4 -121 3 -267 -1 -146 1 -265 5 -265 4 0 25 20 47 44 45 49
227 242 382 404 94 98 102 110 103 147 1 22 2 259 3 528 2 427 0 487 -13 488
-77 3 -3660 7 -3660 4z"/>
<path d="M4465 8204 l0 -533 55 -57 c73 -75 83 -87 235 -248 177 -187 243
-256 247 -256 2 0 3 124 3 275 0 177 3 276 10 278 5 1 469 2 1029 2 l1020 -1
533 532 c293 292 533 534 533 537 0 2 -825 4 -1833 5 l-1832 0 0 -534z"/>
<path d="M645 7585 l1 -215 126 -123 c69 -67 206 -198 303 -292 98 -93 210
-201 250 -240 40 -38 152 -146 250 -240 270 -259 293 -281 430 -413 91 -88
130 -120 136 -111 4 7 5 17 3 21 -3 5 -5 89 -4 186 l1 178 -406 399 c-224 220
-558 550 -743 732 -185 183 -339 333 -342 333 -3 0 -5 -97 -5 -215z"/>
<path d="M4343 7361 c-15 -15 -86 -91 -158 -167 -71 -75 -141 -150 -155 -164
-14 -15 -81 -86 -150 -159 -69 -73 -145 -155 -170 -181 -25 -26 -103 -109
-175 -185 -71 -76 -148 -157 -170 -180 -42 -44 -242 -255 -368 -390 -41 -44
-72 -82 -67 -85 10 -6 2888 -5 2895 1 4 5 -11 21 -245 269 -76 80 -152 161
-170 180 -18 19 -94 100 -169 179 -75 79 -149 159 -166 176 -26 27 -177 188
-345 366 -25 26 -105 110 -178 188 -74 77 -142 149 -152 160 -22 27 -23 27
-57 -8z"/>
<path d="M600 5747 l0 -1464 488 -481 c594 -587 1002 -990 1672 -1652 282
-278 617 -609 747 -736 l234 -231 1 -323 0 -322 266 -264 c146 -145 268 -262
270 -260 10 10 3 2115 -7 2133 -6 10 -487 494 -1070 1077 l-1060 1059 0 121
c0 66 0 380 -1 697 l0 576 -766 767 c-422 421 -768 766 -770 766 -2 0 -4 -659
-4 -1463z"/>
<path d="M7365 6445 c-421 -421 -766 -768 -767 -772 0 -5 -2 -319 -3 -700 l-1
-692 -1071 -1070 -1070 -1070 0 -1066 c0 -586 3 -1065 6 -1065 4 0 45 39 93
87 47 49 152 153 233 233 81 80 161 161 178 180 l32 35 -1 318 -1 318 461 454
c254 250 588 579 742 732 364 358 1172 1156 1602 1580 l337 332 0 1466 c0 806
-1 1465 -2 1465 -1 0 -347 -344 -768 -765z"/>
<path d="M5256 7018 l1 -180 46 -52 c25 -28 79 -85 119 -127 40 -42 125 -132
188 -199 158 -168 192 -203 211 -218 15 -11 16 3 15 167 l-1 180 -110 118
c-60 64 -126 133 -145 153 -42 44 -283 300 -290 309 -3 3 -12 11 -20 18 -13
10 -15 -10 -14 -169z"/>
<path d="M4748 5408 l-282 -277 -2 -635 c-1 -350 0 -636 3 -636 3 0 61 55 128
123 68 67 312 307 542 534 230 226 499 491 598 589 l180 177 0 199 c0 169 -2
198 -15 199 -8 1 -207 2 -442 3 l-427 1 -283 -277z"/>
<path d="M2828 5676 c0 -1 -2 -90 -3 -199 l-3 -198 134 -132 c73 -73 311 -307
530 -522 592 -582 698 -686 747 -734 l45 -43 -1 179 c0 98 2 183 6 189 3 6 4
14 0 18 -4 3 -7 204 -7 445 -1 430 -2 440 -22 463 -11 13 -138 138 -281 279
l-261 256 -441 0 c-243 0 -442 -1 -443 -1z"/>
<path d="M4730 3938 l-265 -261 0 -608 0 -608 28 27 c16 15 137 135 270 267
l241 240 1 603 c0 331 -2 602 -5 602 -3 0 -124 -118 -270 -262z"/>
<path d="M3737 4156 c-3 -8 -3 -16 0 -19 7 -8 6 -374 -1 -386 -4 -5 -2 -12 2
-15 8 -5 9 -29 2 -61 -1 -5 -2 -14 -1 -20 5 -29 2 -376 -3 -384 -4 -5 -2 -12
2 -15 8 -5 9 -29 2 -61 -1 -5 -2 -14 -1 -20 1 -5 2 -49 2 -97 l0 -87 266 -265
c147 -146 269 -264 271 -261 2 2 4 270 3 596 l0 593 -263 258 c-145 142 -266
258 -269 258 -4 0 -9 -6 -12 -14z"/>
<path d="M600 3704 c0 -1 111 -113 246 -250 135 -137 418 -424 629 -639 211
-214 493 -501 627 -636 134 -136 450 -457 703 -714 503 -511 507 -515 516
-515 4 0 35 32 70 71 35 40 75 83 88 96 l23 24 -63 67 c-74 76 -222 230 -359
372 -52 54 -169 176 -260 271 -91 94 -192 200 -225 234 -33 34 -143 149 -245
255 -102 106 -216 225 -255 265 -38 40 -142 148 -230 240 -88 92 -207 216
-265 276 -58 59 -168 174 -245 255 -77 80 -180 187 -228 236 l-88 91 -220 1
c-120 1 -219 0 -219 0z"/>
<path d="M7730 3699 c0 -4 -9 -5 -21 -2 -12 3 -24 1 -28 -5 -6 -10 -178 -191
-403 -423 -45 -48 -153 -160 -238 -249 -85 -89 -193 -201 -240 -249 -47 -49
-164 -170 -260 -271 -96 -100 -209 -217 -250 -260 -41 -43 -142 -148 -225
-234 -82 -87 -190 -199 -240 -250 -94 -98 -378 -394 -509 -530 -42 -44 -76
-83 -76 -87 0 -5 12 -21 28 -37 15 -15 54 -58 86 -95 l60 -68 258 263 c769
781 1042 1059 1285 1305 147 149 462 468 698 709 237 240 440 446 452 457 30
27 21 36 -27 27 -22 -4 -43 -3 -46 1 -3 5 -13 5 -23 -1 -10 -5 -21 -7 -24 -4
-8 8 -118 11 -122 3 -2 -3 -19 -4 -37 -2 -77 8 -98 8 -98 2z"/>
</g>
</svg>
